<svg width="24" height="24" viewBox="0 0 24 24" fill="none" xmlns="http://www.w3.org/2000/svg">
<path d="M3 6C3 5.44772 3.44772 5 4 5H7C7.44361 5 7.83419 5.29225 7.95937 5.71783L10.2482 13.5H17.2192L18.2192 9.5H12C11.4477 9.5 11 9.05228 11 8.5C11 7.94772 11.4477 7.5 12 7.5H19.5C19.8079 7.5 20.0987 7.64187 20.2882 7.88459C20.4777 8.1273 20.5448 8.44379 20.4701 8.74254L18.9701 14.7425C18.8589 15.1877 18.4589 15.5 18 15.5H9.5C9.05639 15.5 8.66581 15.2077 8.54063 14.7822L6.25176 7H4C3.44772 7 3 6.55228 3 6Z" fill="white"/>
<path d="M11 18C11 19.1046 10.1046 20 9 20C7.89543 20 7 19.1046 7 18C7 16.8954 7.89543 16 9 16C10.1046 16 11 16.8954 11 18Z" fill="white"/>
<path d="M18 20C19.1046 20 20 19.1046 20 18C20 16.8954 19.1046 16 18 16C16.8954 16 16 16.8954 16 18C16 19.1046 16.8954 20 18 20Z" fill="white"/>
</svg>
