<svg width="18" height="18" viewBox="0 0 18 18" fill="none" xmlns="http://www.w3.org/2000/svg">
<path fill-rule="evenodd" clip-rule="evenodd" d="M1.93759 0.493943C1.54706 0.103419 0.913899 0.103419 0.523375 0.493943C0.13285 0.884467 0.13285 1.51763 0.523375 1.90816L7.61524 9.00003L0.523362 16.0919C0.132837 16.4824 0.132838 17.1156 0.523362 17.5061C0.913887 17.8966 1.54705 17.8966 1.93758 17.5061L9.02946 10.4142L16.1213 17.5061C16.5118 17.8966 17.145 17.8966 17.5355 17.5061C17.9261 17.1156 17.9261 16.4824 17.5355 16.0919L10.4437 9.00003L17.5355 1.90818C17.926 1.51765 17.926 0.884489 17.5355 0.493965C17.145 0.103441 16.5118 0.103441 16.1213 0.493965L9.02946 7.58581L1.93759 0.493943Z" fill="white"/>
</svg>
