<svg width="24" height="24" viewBox="0 0 24 24" fill="none" xmlns="http://www.w3.org/2000/svg">
<path fill-rule="evenodd" clip-rule="evenodd" d="M13 4C13 3.44772 12.5523 3 12 3C11.4477 3 11 3.44772 11 4V5L7.02327 5C7.00774 4.99963 6.99216 4.99963 6.97656 5H6.5C6.41355 5 6.32965 5.01097 6.24964 5.0316C5.76955 4.90708 5.26035 5.15597 5.0713 5.6286L3.07514 10.619C3.06371 10.6467 3.05349 10.6751 3.04454 10.704C3.01087 10.8122 2.9966 10.9225 3 11.0308V11.5C3 13.433 4.567 15 6.5 15C8.433 15 10 13.433 10 11.5V11.0308C10.0034 10.9225 9.98913 10.8122 9.95545 10.7039C9.94651 10.675 9.93629 10.6467 9.92486 10.619L8.47726 7L11 7V18H9.5C8.94772 18 8.5 18.4477 8.5 19C8.5 19.5523 8.94772 20 9.5 20H15C15.5523 20 16 19.5523 16 19C16 18.4477 15.5523 18 15 18H13V7L15.5227 7L14.0752 10.619C14.0637 10.6468 14.0534 10.6752 14.0445 10.7043C14.0108 10.8124 13.9966 10.9226 14 11.0308V11.5C14 13.433 15.567 15 17.5 15C19.433 15 21 13.433 21 11.5V11.0308C21.0034 10.9224 20.9891 10.812 20.9554 10.7037C20.9465 10.6749 20.9363 10.6467 20.9249 10.619L18.9327 5.63863C18.9242 5.6166 18.9149 5.59495 18.9049 5.57372C18.8158 5.38424 18.6735 5.23464 18.5033 5.13573C18.3451 5.04377 18.1628 4.99562 17.9766 5H17.0234C17.0078 4.99963 16.9923 4.99963 16.9767 5L13 5V4ZM6.5 7.44202L7.52319 10H5.47681L6.5 7.44202ZM5.08535 12C5.29127 12.5826 5.84689 13 6.5 13C7.15311 13 7.70873 12.5826 7.91465 12H5.08535ZM17.5 7.44202L16.4768 10H18.5232L17.5 7.44202ZM16.0854 12C16.2913 12.5826 16.8469 13 17.5 13C18.1531 13 18.7087 12.5826 18.9146 12H16.0854Z" fill="white"/>
</svg>
