<svg width="24" height="24" viewBox="0 0 24 24" fill="none" xmlns="http://www.w3.org/2000/svg">
<path fill-rule="evenodd" clip-rule="evenodd" d="M4 11C4 15.4183 7.58172 19 12 19C13.8487 19 15.551 18.3729 16.9056 17.3199L20.2929 20.7071C20.6834 21.0976 21.3166 21.0976 21.7071 20.7071C22.0976 20.3166 22.0976 19.6834 21.7071 19.2929L18.3199 15.9056C19.3729 14.551 20 12.8487 20 11C20 6.58172 16.4183 3 12 3C7.58172 3 4 6.58172 4 11ZM6 11C6 14.3137 8.68629 17 12 17C15.3137 17 18 14.3137 18 11C18 7.68629 15.3137 5 12 5C8.68629 5 6 7.68629 6 11Z" fill="white"/>
</svg>
